<svg width="20" height="20" viewBox="0 0 20 20" fill="none" xmlns="http://www.w3.org/2000/svg">
<path d="M0 5C0 2.23858 2.23858 0 5 0H15C17.7614 0 20 2.23858 20 5V15C20 17.7614 17.7614 20 15 20H5C2.23858 20 0 17.7614 0 15V5Z" fill="#7B61FF"/>
<path d="M5 5C5 4.44772 5.44772 4 6 4H14C14.5523 4 15 4.44772 15 5C15 5.55228 14.5523 6 14 6H6C5.44772 6 5 5.55228 5 5Z" fill="#F4F4F4"/>
<path d="M5 10C5 9.44772 5.44772 9 6 9H14C14.5523 9 15 9.44772 15 10C15 10.5523 14.5523 11 14 11H6C5.44772 11 5 10.5523 5 10Z" fill="#F4F4F4"/>
<path d="M5 15C5 14.4477 5.44772 14 6 14H14C14.5523 14 15 14.4477 15 15C15 15.5523 14.5523 16 14 16H6C5.44772 16 5 15.5523 5 15Z" fill="#F4F4F4"/>
</svg>
